<svg width="25" height="25" viewBox="0 0 25 25" fill="none" xmlns="http://www.w3.org/2000/svg">
<path d="M15.625 12.5C15.625 13.1181 15.4417 13.7223 15.0983 14.2362C14.755 14.7501 14.2669 15.1506 13.6959 15.3871C13.1249 15.6236 12.4965 15.6855 11.8903 15.565C11.2842 15.4444 10.7273 15.1467 10.2903 14.7097C9.85325 14.2727 9.55563 13.7158 9.43505 13.1097C9.31447 12.5035 9.37635 11.8751 9.61288 11.3041C9.8494 10.7331 10.2499 10.245 10.7638 9.90166C11.2777 9.55828 11.8819 9.375 12.5 9.375C13.3286 9.37582 14.1229 9.70532 14.7088 10.2912C15.2947 10.8771 15.6242 11.6714 15.625 12.5ZM4.6875 9.375C4.06943 9.375 3.46525 9.55828 2.95134 9.90166C2.43744 10.245 2.0369 10.7331 1.80038 11.3041C1.56385 11.8751 1.50197 12.5035 1.62255 13.1097C1.74313 13.7158 2.04075 14.2727 2.47779 14.7097C2.91483 15.1467 3.47165 15.4444 4.07784 15.565C4.68403 15.6855 5.31237 15.6236 5.88339 15.3871C6.45441 15.1506 6.94246 14.7501 7.28584 14.2362C7.62922 13.7223 7.8125 13.1181 7.8125 12.5C7.81168 11.6714 7.48218 10.8771 6.89631 10.2912C6.31043 9.70532 5.51605 9.37582 4.6875 9.375V9.375ZM20.3125 9.375C19.6944 9.375 19.0902 9.55828 18.5763 9.90166C18.0624 10.245 17.6619 10.7331 17.4254 11.3041C17.1889 11.8751 17.127 12.5035 17.2475 13.1097C17.3681 13.7158 17.6658 14.2727 18.1028 14.7097C18.5398 15.1467 19.0967 15.4444 19.7028 15.565C20.309 15.6855 20.9374 15.6236 21.5084 15.3871C22.0794 15.1506 22.5675 14.7501 22.9108 14.2362C23.2542 13.7223 23.4375 13.1181 23.4375 12.5C23.4367 11.6714 23.1072 10.8771 22.5213 10.2912C21.9354 9.70532 21.1411 9.37582 20.3125 9.375V9.375Z" fill="#7E7D7D"/>
</svg>
